<svg id="Capa_1" enable-background="new 0 0 512 512" height="512" viewBox="0 0 512 512" width="512" xmlns="http://www.w3.org/2000/svg" xmlns:xlink="http://www.w3.org/1999/xlink"><linearGradient id="SVGID_1_" gradientUnits="userSpaceOnUse" x1="139.486" x2="501.525" y1="446.114" y2="84.075"><stop offset="0" stop-color="#fff" stop-opacity="0"/><stop offset=".2617" stop-color="#ededff" stop-opacity=".416"/><stop offset=".629" stop-color="#d8d8ff"/></linearGradient><linearGradient id="SVGID_00000050626302961912610240000010242065395618039955_" gradientUnits="userSpaceOnUse" x1="256.001" x2="256.001" y1="440.02" y2="55.83"><stop offset="0" stop-color="#ff4d4d" stop-opacity=".4"/><stop offset=".1463" stop-color="#ff4d4d" stop-opacity=".342"/><stop offset="1" stop-color="#ff4d4d" stop-opacity="0"/></linearGradient><g><g><path d="m226.684 16.835c-111.751 30.667-115.88 258.554-206.428 335.664-44.543 37.933-5.203 91.671 18.888 99.303 44.901 14.224 60.693-15.807 89.741-24.674 42.439-12.842 75.603 29.229 98.949 42.671 106.71 61.446 283.964 37.081 284.166-74.143-3.714-43.182-35.087-79.218-60.664-112.383-68.443-76.485-53.643-83.295-25.411-170.052 13.238-98.176-125.732-117.253-199.241-96.386z" fill="url(#SVGID_1_)"/></g><g><g><g><g><g><path d="m457.52 121.88v288.14c0 16.57-13.43 30-30 30h-343.04c-16.57 0-30-13.43-30-30v-288.14l201.79-33.02z" fill="#fff"/><path d="m288.271 383.92c0 20.69-6.1 39.96-16.61 56.1h-172.76c-10.52-16.14-16.62-35.41-16.62-56.1 0-23.84 8.1-45.78 21.7-63.24l-12.13-12.12c-2.17-2.18-3.26-5.02-3.26-7.86 0-2.85 1.09-5.69 3.26-7.86 4.34-4.34 11.38-4.34 15.72 0l11.87 11.87c15.17-12.62 34.03-20.97 54.72-23.19v-22.44h-22.91c-2.76 0-5-2.24-5-5v-26.16c0-2.76 2.24-5 5-5h68.05c2.76 0 5 2.24 5 5v26.16c0 2.76-2.24 5-5 5h-22.91v22.44c20.69 2.22 39.55 10.57 54.72 23.19l11.87-11.87c2.17-2.17 5.01-3.26 7.86-3.26s5.69 1.09 7.86 3.26c4.34 4.34 4.34 11.37 0 15.72l-12.13 12.12c13.6 17.46 21.7 39.4 21.7 63.24z" fill="#d8d8ff"/><path d="m457.519 142.379v-56.547c0-16.569-13.432-30-30-30h-343.04c-16.568 0-30 13.431-30 30v56.546h403.04z" fill="#d8d8ff"/><path d="m457.519 121.882v-36.05c0-16.569-13.431-30-30-30h-343.04c-16.569 0-30 13.431-30 30v36.05z" fill="#ff6c6c"/><g><g fill="#ff4d4d"><path d="m115.455 61.976h-6.819c-5.523 0-10 4.477-10 10v28.881c0 5.523 4.477 10 10 10h6.819c5.523 0 10-4.477 10-10v-28.881c0-5.523-4.477-10-10-10z"/><path d="m173.036 61.976h-6.819c-5.523 0-10 4.477-10 10v28.881c0 5.523 4.477 10 10 10h6.819c5.523 0 10-4.477 10-10v-28.881c0-5.523-4.477-10-10-10z"/><path d="m230.618 61.976h-6.819c-5.523 0-10 4.477-10 10v28.881c0 5.523 4.477 10 10 10h6.819c5.523 0 10-4.477 10-10v-28.881c0-5.523-4.478-10-10-10z"/><path d="m288.199 61.976h-6.819c-5.523 0-10 4.477-10 10v28.881c0 5.523 4.477 10 10 10h6.819c5.523 0 10-4.477 10-10v-28.881c0-5.523-4.477-10-10-10z"/></g><g><g><g><path d="m115.455 88.857h-6.819c-5.523 0-10-4.477-10-10v-28.881c0-5.523 4.477-10 10-10h6.819c5.523 0 10 4.477 10 10v28.881c0 5.523-4.477 10-10 10z" fill="#6c6cff"/></g><g><path d="m173.036 88.857h-6.819c-5.523 0-10-4.477-10-10v-28.881c0-5.523 4.477-10 10-10h6.819c5.523 0 10 4.477 10 10v28.881c0 5.523-4.477 10-10 10z" fill="#6c6cff"/></g><g><path d="m230.618 88.857h-6.819c-5.523 0-10-4.477-10-10v-28.881c0-5.523 4.477-10 10-10h6.819c5.523 0 10 4.477 10 10v28.881c0 5.523-4.478 10-10 10z" fill="#6c6cff"/></g></g><g><g><path d="m288.199 88.857h-6.819c-5.523 0-10-4.477-10-10v-28.881c0-5.523 4.477-10 10-10h6.819c5.523 0 10 4.477 10 10v28.881c0 5.523-4.477 10-10 10z" fill="#6c6cff"/></g></g></g><g fill="#ff4d4d"><path d="m345.78 61.976h-6.819c-5.523 0-10 4.477-10 10v28.881c0 5.523 4.477 10 10 10h6.819c5.523 0 10-4.477 10-10v-28.881c0-5.523-4.477-10-10-10z"/><path d="m403.361 61.976h-6.819c-5.523 0-10 4.477-10 10v28.881c0 5.523 4.477 10 10 10h6.819c5.523 0 10-4.477 10-10v-28.881c0-5.523-4.477-10-10-10z"/></g><g><g><g><path d="m345.78 88.857h-6.819c-5.523 0-10-4.477-10-10v-28.881c0-5.523 4.477-10 10-10h6.819c5.523 0 10 4.477 10 10v28.881c0 5.523-4.477 10-10 10z" fill="#6c6cff"/></g><g><path d="m403.361 88.857h-6.819c-5.523 0-10-4.477-10-10v-28.881c0-5.523 4.477-10 10-10h6.819c5.523 0 10 4.477 10 10v28.881c0 5.523-4.477 10-10 10z" fill="#6c6cff"/></g></g></g></g></g></g></g><path d="m422.98 214.01v147.75c0 5.52-4.48 10-10 10h-313.42c-5.52 0-10-4.48-10-10v-147.75l174.11-23.17z" fill="#d8d8ff"/><path d="m287.551 371.76h-187.99c-5.52 0-10-4.48-10-10v-15.96c3.62-9.08 8.5-17.52 14.42-25.12l-12.13-12.12c-.99-1-1.76-2.13-2.29-3.34v-9.04c.53-1.21 1.3-2.35 2.29-3.34 4.34-4.34 11.38-4.34 15.72 0l11.87 11.87c15.17-12.62 34.03-20.97 54.72-23.19v-22.44h-22.91c-2.76 0-5-2.24-5-5v-26.16c0-2.76 2.24-5 5-5h68.05c2.76 0 5 2.24 5 5v26.16c0 2.76-2.24 5-5 5h-22.91v22.44c20.69 2.22 39.55 10.57 54.72 23.19l11.87-11.87c2.17-2.17 5.01-3.26 7.86-3.26s5.69 1.09 7.86 3.26c4.34 4.34 4.34 11.37 0 15.72l-12.13 12.12c11.25 14.45 18.74 31.96 20.98 51.08z" fill="#b2b2ff"/><path d="m422.982 214.006v-36.336c0-5.523-4.477-10-10-10h-313.422c-5.523 0-10 4.477-10 10v36.336z" fill="#9393ff"/><g><g><path d="m164.023 235.762h42.507v22.228h-42.507z" fill="#fa6" transform="matrix(0 1 -1 0 432.153 61.599)"/></g><g><g><path d="m240.785 291.036 22.198-22.198c4.34-4.34 11.377-4.34 15.718 0 4.34 4.34 4.34 11.377 0 15.718l-22.198 22.198z" fill="#6c6cff"/></g><g><path d="m129.769 291.036-22.198-22.198c-4.34-4.34-11.377-4.34-15.718 0-4.34 4.34-4.34 11.377 0 15.718l22.198 22.198z" fill="#6c6cff"/></g></g><g><g><path d="m427.521 55.83h-343.04c-16.57 0-30 13.43-30 30v324.19c0 16.57 13.43 30 30 30h343.04c16.57 0 30-13.43 30-30v-324.19c0-16.57-13.43-30-30-30z" fill="url(#SVGID_00000050626302961912610240000010242065395618039955_)"/><g><circle cx="185.277" cy="359.918" fill="#ffc498" r="102.997"/></g><circle cx="185.277" cy="359.918" fill="#fff" r="83.937"/></g><g><path d="m140.117 347.046c-.536-1.162-.629-2.528-.152-3.824.955-2.591 3.829-3.918 6.421-2.963l30.405 11.203c2.591.955 3.917 3.829 2.963 6.421-.955 2.591-3.829 3.918-6.421 2.963l-30.405-11.203c-1.295-.478-2.275-1.435-2.811-2.597z" fill="#ff6c6c"/></g><g><path d="m222.846 418.542-35.813-47.922c-1.653-2.212-1.2-5.345 1.012-6.998s5.345-1.2 6.998 1.012l35.813 47.922c1.653 2.212 1.2 5.345-1.012 6.998-2.211 1.653-5.345 1.2-6.998-1.012z" fill="#6c6cff"/></g><g><g><g><path d="m185.277 345.293c8.064 0 14.625 6.561 14.625 14.625 0 8.063-6.561 14.624-14.625 14.624s-14.625-6.561-14.625-14.624c0-8.064 6.561-14.625 14.625-14.625zm0 19.249c2.55 0 4.625-2.074 4.625-4.624s-2.075-4.625-4.625-4.625-4.625 2.075-4.625 4.625 2.075 4.624 4.625 4.624z" fill="#9393ff"/></g></g><g><g><path d="m188.546 356.648c-1.952-1.952-1.952-5.119 0-7.071l40.784-40.784c1.952-1.952 5.119-1.952 7.071 0s1.952 5.119 0 7.071l-40.784 40.784c-1.952 1.953-5.118 1.953-7.071 0z" fill="#9393ff"/></g><g><path d="m229.786 323.438-8.03-8.03c-1.952-1.952-1.952-5.119 0-7.071s5.119-1.952 7.071 0l8.03 8.03c1.952 1.952 1.952 5.119 0 7.071s-5.118 1.952-7.071 0z" fill="#b2b2ff"/></g></g></g></g><g><g><path d="m219.298 235.077h-68.043c-2.761 0-5-2.239-5-5v-26.159c0-2.761 2.239-5 5-5h68.043c2.761 0 5 2.239 5 5v26.159c0 2.762-2.238 5-5 5z" fill="#ffc498"/></g><g><path d="m166.177 223.79c-2.761 0-5-2.239-5-5v-5.423c0-2.761 2.239-5 5-5s5 2.239 5 5v5.423c0 2.761-2.238 5-5 5z" fill="#ff9c33"/></g><g><path d="m185.277 223.79c-2.761 0-5-2.239-5-5v-5.423c0-2.761 2.239-5 5-5s5 2.239 5 5v5.423c0 2.761-2.239 5-5 5z" fill="#ff9c33"/></g><g><path d="m204.376 223.79c-2.761 0-5-2.239-5-5v-5.423c0-2.761 2.239-5 5-5s5 2.239 5 5v5.423c0 2.761-2.239 5-5 5z" fill="#ff9c33"/></g></g></g><g fill="#fa6"><circle cx="415.569" cy="390.143" r="5"/><circle cx="399.952" cy="390.143" r="5"/><circle cx="384.334" cy="390.143" r="5"/><circle cx="415.569" cy="390.143" r="5"/><circle cx="399.952" cy="390.143" r="5"/><circle cx="384.334" cy="390.143" r="5"/></g><g><g><g><path d="m357.283 246.992h-3.798c-2.761 0-5-2.239-5-5s2.239-5 5-5h3.798c2.761 0 5 2.239 5 5s-2.239 5-5 5z" fill="#8282ff"/></g><g><path d="m383.043 246.992h-3.799c-2.761 0-5-2.239-5-5s2.239-5 5-5h3.799c2.761 0 5 2.239 5 5s-2.239 5-5 5z" fill="#8282ff"/></g></g><g><g><path d="m331.523 271.771h-3.799c-2.761 0-5-2.239-5-5s2.239-5 5-5h3.799c2.761 0 5 2.239 5 5s-2.239 5-5 5z" fill="#ff6c6c"/></g><g><path d="m357.283 271.771h-3.798c-2.761 0-5-2.239-5-5s2.239-5 5-5h3.798c2.761 0 5 2.239 5 5s-2.239 5-5 5z" fill="#8282ff"/></g><g><path d="m383.043 271.771h-3.799c-2.761 0-5-2.239-5-5s2.239-5 5-5h3.799c2.761 0 5 2.239 5 5s-2.239 5-5 5z" fill="#8282ff"/></g></g><g><g><path d="m331.523 296.549h-3.799c-2.761 0-5-2.239-5-5s2.239-5 5-5h3.799c2.761 0 5 2.239 5 5s-2.239 5-5 5z" fill="#ff6c6c"/></g><g><path d="m357.283 296.549h-3.798c-2.761 0-5-2.239-5-5s2.239-5 5-5h3.798c2.761 0 5 2.239 5 5s-2.239 5-5 5z" fill="#8282ff"/></g><g><path d="m383.043 296.549h-3.799c-2.761 0-5-2.239-5-5s2.239-5 5-5h3.799c2.761 0 5 2.239 5 5s-2.239 5-5 5z" fill="#8282ff"/></g></g><g><g><path d="m331.523 321.327h-3.799c-2.761 0-5-2.239-5-5s2.239-5 5-5h3.799c2.761 0 5 2.239 5 5s-2.239 5-5 5z" fill="#ff6c6c"/></g><g><path d="m357.283 321.327h-3.798c-2.761 0-5-2.239-5-5s2.239-5 5-5h3.798c2.761 0 5 2.239 5 5s-2.239 5-5 5z" fill="#8282ff"/></g><g><path d="m383.043 321.327h-3.799c-2.761 0-5-2.239-5-5s2.239-5 5-5h3.799c2.761 0 5 2.239 5 5s-2.239 5-5 5z" fill="#8282ff"/></g></g><g><g><path d="m331.523 346.106h-3.799c-2.761 0-5-2.239-5-5s2.239-5 5-5h3.799c2.761 0 5 2.239 5 5s-2.239 5-5 5z" fill="#ff6c6c"/></g><g><path d="m357.283 346.106h-3.798c-2.761 0-5-2.239-5-5s2.239-5 5-5h3.798c2.761 0 5 2.239 5 5s-2.239 5-5 5z" fill="#8282ff"/></g></g></g></g><g><path d="m32.432 459.355c-1.28 0-2.559-.488-3.536-1.464l-10.5-10.5c-1.953-1.953-1.953-5.119 0-7.071l10.5-10.5c1.953-1.952 5.118-1.952 7.071 0l10.5 10.5c1.953 1.953 1.953 5.119 0 7.071l-10.5 10.5c-.976.976-2.256 1.464-3.535 1.464zm-3.429-15.5 3.429 3.429 3.429-3.429-3.429-3.429z" fill="#ff6c6c"/></g><g><path d="m280.324 490.211c-1.279 0-2.56-.488-3.535-1.464l-10.5-10.5c-1.953-1.953-1.953-5.119 0-7.071l10.5-10.5c1.951-1.952 5.119-1.952 7.07 0l10.5 10.5c1.953 1.953 1.953 5.119 0 7.071l-10.5 10.5c-.975.976-2.255 1.464-3.535 1.464zm-3.428-15.5 3.429 3.429 3.429-3.429-3.429-3.429z" fill="#8282ff"/></g><g><path d="m70.288 490.711c-1.28 0-2.559-.488-3.536-1.464-1.953-1.953-1.953-5.119 0-7.071l10-10c1.953-1.952 5.118-1.952 7.071 0 1.953 1.953 1.953 5.119 0 7.071l-10 10c-.976.976-2.255 1.464-3.535 1.464z" fill="#ff9c33"/></g><g><path d="m477.568 281.771c-1.279 0-2.56-.488-3.535-1.464-1.953-1.953-1.953-5.119 0-7.071l10-10c1.951-1.952 5.119-1.952 7.07 0 1.953 1.953 1.953 5.119 0 7.071l-10 10c-.975.975-2.255 1.464-3.535 1.464z" fill="#ff6c6c"/></g><g><path d="m77.281 36.787c-1.28 0-2.559-.488-3.536-1.464-1.953-1.953-1.953-5.119 0-7.071l10-10c1.953-1.952 5.118-1.952 7.071 0 1.953 1.953 1.953 5.119 0 7.071l-10 10c-.976.975-2.255 1.464-3.535 1.464z" fill="#ff9c33"/></g></g></g></svg>